<?xml version="1.0" encoding="utf-8"?>
<svg width="64" height="64" version="1.1" id="svg2" xmlns="http://www.w3.org/2000/svg" xmlns:bx="https://boxy-svg.com">
  <defs id="defs2">
    <filter id="filter9" x="-0.012" y="-0.012" width="1.024" height="1.024" color-interpolation-filters="sRGB">
      <feGaussianBlur stdDeviation="0.074082" id="feGaussianBlur2"/>
    </filter>
    <linearGradient id="linearGradient3" x1="8.4665003" x2="8.4665003" y1="1.0583" y2="15.875" gradientUnits="userSpaceOnUse" gradientTransform="scale(3.779602)">
      <stop stop-color="#ffffff" offset="0" id="stop1-5"/>
      <stop stop-color="#ececec" offset="1" id="stop2-3"/>
    </linearGradient>
    <filter id="drop-shadow-filter-1" bx:preset="drop-shadow 1 10 10 6 0.5 rgba(0,0,0,0.3)" color-interpolation-filters="sRGB" x="-50%" y="-50%" width="200%" height="200%">
      <feGaussianBlur in="SourceAlpha" stdDeviation="6"/>
      <feOffset dx="10" dy="10"/>
      <feComponentTransfer result="offsetblur">
        <feFuncA id="spread-ctrl" type="linear" slope="1"/>
      </feComponentTransfer>
      <feFlood flood-color="rgba(0,0,0,0.3)"/>
      <feComposite in2="offsetblur" operator="in"/>
      <feMerge>
        <feMergeNode/>
        <feMergeNode in="SourceGraphic"/>
      </feMerge>
    </filter>
  </defs>
  <path d="m 20.259801,4.0003308 c -5.782036,0 -9.74268,1.7242922 -12.321125,4.5347664 C 5.3735358,11.331285 3.9999528,15.338759 3.9999528,19.876549 v 24.247659 c 0,4.53779 1.373394,8.545302 3.9387232,11.341451 2.578407,2.810323 6.539089,4.534767 12.321125,4.534767 h 23.549188 c 5.782035,0 9.74268,-1.72433 12.321124,-4.534767 2.565141,-2.796187 3.870313,-6.43515 3.870313,-11.341451 V 20.787055 c 0,-5.935109 -1.304983,-9.456186 -3.870313,-12.2523357 C 53.551707,5.7243962 49.591024,3.9999528 43.808989,3.9999528 H 25.494171 Z" fill="url(#linearGradient3)" id="path2" style="fill:url(#linearGradient3);stroke-width:3.7796"/>
  <path d="M 20.26 4 C 14.478 4 10.518 5.725 7.94 8.535 C 5.374 11.331 4 15.339 4 19.877 L 4 44.123 C 4 48.661 5.374 52.669 7.94 55.465 C 10.518 58.275 14.478 60 20.26 60 L 43.809 60 C 49.591 60 53.551 58.275 56.129 55.465 C 58.694 52.669 60 49.03 60 44.123 L 60 20.787 C 60 14.852 58.694 11.331 56.129 8.535 C 53.551 5.725 49.591 4 43.809 4 L 25.494 4 L 20.26 4 Z M 20.256 4.998 L 43.813 4.998 C 49.396 4.998 53.024 6.628 55.395 9.213 C 57.792 11.826 58.999 14.999 58.999 20.787 L 58.999 44.123 C 58.999 48.853 57.782 52.187 55.395 54.79 C 53.024 57.374 49.396 58.998 43.813 58.998 L 20.256 58.998 C 14.673 58.998 11.045 57.374 8.674 54.79 C 6.31 52.213 4.998 48.46 4.998 44.123 L 4.998 19.879 C 4.998 15.543 6.31 11.79 8.674 9.213 C 11.045 6.629 14.672 4.998 20.256 4.998 L 20.256 4.998 Z" fill="#ffffff" filter="url(#filter9)" id="path3"/>
  <linearGradient id="gradient-1" gradientTransform="matrix(0 254.68 -254.68 0 127.844 .659988)" gradientUnits="userSpaceOnUse" x1="0" x2="1" y1="0" y2="0">
    <stop offset="0" stop-color="#fff" stop-opacity=".25"/>
    <stop offset="1" stop-color="#fff" stop-opacity="0"/>
  </linearGradient>
  <g transform="matrix(0.148347, 0, 0, 0.148347, 13.023361, 13.011794)" style="filter: url(&quot;#drop-shadow-filter-1&quot;);">
    <g fill-rule="nonzero">
      <path d="m246.94 27.638-52.747-25.397c-6.105-2.939-13.402-1.699-18.194 3.092l-172.675 157.44c-4.645 4.235-4.639 11.547.011 15.775l14.105 12.822c3.802 3.457 9.528 3.711 13.622.606l207.941-157.749c6.976-5.292 16.996-.317 16.996 8.44v-.613c0-6.146-3.521-11.749-9.059-14.416z" fill="#0065a9"/>
      <path d="m246.94 228.362-52.747 25.397c-6.105 2.939-13.402 1.699-18.194-3.092l-172.675-157.44c-4.645-4.234-4.639-11.547.011-15.775l14.105-12.822c3.802-3.457 9.528-3.711 13.622-.605l207.941 157.748c6.976 5.292 16.996.317 16.996-8.44v.613c0 6.146-3.521 11.749-9.059 14.416z" fill="#007acc"/>
      <path d="m194.196 253.763c-6.107 2.937-13.404 1.696-18.196-3.096 5.904 5.904 16 1.722 16-6.628v-232.078c0-8.35-10.096-12.532-16-6.628 4.792-4.792 12.089-6.034 18.196-3.097l52.738 25.363c5.542 2.665 9.066 8.27 9.066 14.419v171.965c0 6.149-3.524 11.754-9.066 14.419z" fill="#1f9cf0"/>
    </g>
    <path d="m181.378 254.252c4.032 1.57 8.63 1.47 12.699-.488l52.706-25.362c5.539-2.665 9.061-8.27 9.061-14.419v-171.965c0-6.149-3.522-11.754-9.06-14.419l-52.707-25.362c-5.34-2.57-11.591-1.941-16.279 1.467-.669.487-1.307 1.03-1.906 1.629l-100.899 92.053-43.95-33.361c-4.091-3.106-9.814-2.852-13.614.605l-14.096 12.822c-4.648 4.228-4.653 11.541-.011 15.775l38.114 34.773-38.114 34.773c-4.642 4.235-4.637 11.547.011 15.775l14.096 12.822c3.8 3.457 9.523 3.711 13.614.606l43.95-33.362 100.899 92.053c1.596 1.597 3.471 2.8 5.486 3.585zm10.505-184.367-76.56 58.115 76.56 58.115z" fill="url(#gradient-1)"/>
  </g>
</svg>